<svg id="Layer_1" data-name="Layer 1" xmlns="http://www.w3.org/2000/svg" viewBox="0 0 100 100"><defs><style>.cls-1{fill:#231f20;}</style></defs><title>rootstalk_leafArtboard 1</title><path class="cls-1" d="M24.8,28.5h-.13a4,4,0,0,0-.13.9c0,.88.11,1.76.17,2.64a4.57,4.57,0,0,0,.07.83c.2.79.39,1.59.66,2.36a13,13,0,0,0,1,2.34,4.65,4.65,0,0,0,1.31,1.51,6.89,6.89,0,0,0,2.29,1c.57.14,1.12.35,1.68.53,0-.06,0-.09,0-.11l-.08-.08a11.36,11.36,0,0,1-2.31-1.66,2.89,2.89,0,0,0-.4-.38A7.92,7.92,0,0,1,27,36.13,13.73,13.73,0,0,1,25.6,33a4.49,4.49,0,0,1-.42-1.73,1.89,1.89,0,0,0-.07-.39c-.07-.45-.13-.91-.19-1.37l-.12-1m7.54,12,.09-.1a6,6,0,0,1-.39-.49c-.47-.75-.94-1.5-1.39-2.26a5.31,5.31,0,0,1-.2-.56c-.39-.9-.83-1.8-1.19-2.72a6.75,6.75,0,0,0-.84-1.73c-.29-.39-.49-.85-.78-1.24-.58-.83-1.2-1.65-1.8-2.46-.07-.1-.16-.19-.31-.36a2.07,2.07,0,0,0-.05.41,22.71,22.71,0,0,0,.35,2.75,13.82,13.82,0,0,0,2,4.58,8,8,0,0,0,.93,1.22c.73.67,1.52,1.28,2.27,1.92.33.27.62.57.94.84a1.79,1.79,0,0,0,.39.2M48.88,28.08a1.27,1.27,0,0,0-.21.07c-.79.37-1.57.78-2.37,1.11-1.23.51-2.49,1-3.73,1.46a11.2,11.2,0,0,0-3.65,2.21c-.23.21-.37.52-.59.74a14.45,14.45,0,0,0-2,2.57,7.62,7.62,0,0,0-1,2.16,7.09,7.09,0,0,0,.1,3.14c0,.25.12.49.19.76.33-.22.33-.25.26-.55a4.9,4.9,0,0,1,.82-4.14,16.38,16.38,0,0,1,4.11-4.15c1.17-.8,2.38-1.54,3.61-2.22,1.08-.59,2.22-1.06,3.33-1.6a3.23,3.23,0,0,0,1.17-1.41s0-.07,0-.15M37.55,40.69c1.31-.52,2.58-1,3.82-1.52a14.92,14.92,0,0,0,5.35-3.34,8.14,8.14,0,0,0,2.54-5.25c0-.11,0-.23,0-.35a.54.54,0,0,0-.25.25,8.36,8.36,0,0,1-2.17,2.66c-.86.73-1.77,1.39-2.67,2.06-.36.27-.75.49-1.12.75-.76.53-1.49,1.09-2.26,1.6a16,16,0,0,0-3.22,3.14m-2.84,1.06.13-.09c-.22-.49-.42-1-.65-1.49a9.7,9.7,0,0,1-.51-1c-.37-1-.71-2.12-1.06-3.18-.07-.2-.15-.4-.2-.6a7.53,7.53,0,0,0-1.2-2.62c-.45-.56-.89-1.12-1.38-1.64s-1-1-1.53-1.49a12.42,12.42,0,0,1-2.26-2.75c0-.05-.1-.08-.19-.15a.84.84,0,0,0-.1.31,4.31,4.31,0,0,0,.29,1.15,9.61,9.61,0,0,0,1.06,1.62,17.59,17.59,0,0,1,3,5.21c.29.81.68,1.58,1,2.37a4.57,4.57,0,0,0,.35.74c.36.54.75,1.05,1.12,1.58a.42.42,0,0,1,.1.17,1.16,1.16,0,0,0,.59.76c.18.13.33.3.51.44s.48.57.87.61m-.2-2.1h.09c0-.09,0-.17.06-.25l.15-1.33a9,9,0,0,0,.12-1.26,13.35,13.35,0,0,0-.64-3.76,6.09,6.09,0,0,0-.78-1.41c-.28-.42-.65-.77-.94-1.18A3.9,3.9,0,0,0,31.07,29a.44.44,0,0,1-.15-.12l-1.75-1.56a11.64,11.64,0,0,1-2.3-2.6c-.11-.18-.27-.2-.38,0a1.41,1.41,0,0,0-.24.6A3.48,3.48,0,0,0,27.47,28c.62.63,1.27,1.23,1.9,1.85l.08.08c.65.73,1.28,1.48,2,2.18a8.53,8.53,0,0,1,1.46,2.7c.21.51.33,1.06.5,1.58.26.81.51,1.62.78,2.42.1.28.24.54.36.82m14.21-9.84-.1,0c-.64.32-1.27.64-1.92.95-.41.2-.85.37-1.27.56A32,32,0,0,0,41,33.91a5.19,5.19,0,0,0-.85.7c-.81.85-1.6,1.72-2.38,2.6a5.17,5.17,0,0,0-1.43,3.48,5.61,5.61,0,0,1-.06.59l.09,0a2.08,2.08,0,0,0,.21-.21c.44-.53.84-1.09,1.3-1.6a12,12,0,0,1,2.64-2.38c.49-.29,1-.6,1.43-.93,1.19-.87,2.36-1.75,3.54-2.62A10.33,10.33,0,0,0,48,31.08c.27-.41.5-.85.75-1.27M26.11,23.44c.37,0,.44-.23.52-.45s.38-.54.56-.41.15.46,0,.65c-.56.91-.2.93.21,1.46s.8,1,1.23,1.41.65.58,1,.87l1.73,1.52a13,13,0,0,1,1.19,1,13.82,13.82,0,0,1,1.28,1.66,8.88,8.88,0,0,1,1.27,3.1c.09.45.15.91.23,1.37,0,.2.09.4.13.6l.11,0a5.32,5.32,0,0,0,.36-.47,3.21,3.21,0,0,1,.24-.45,21,21,0,0,1,2.87-3.22,14.31,14.31,0,0,1,2.34-1.42c1-.49,2.17-.84,3.24-1.29s2-.87,2.93-1.3a9.9,9.9,0,0,0,.93-.44.68.68,0,0,0,.38-.83c0-.05,0-.14,0-.15s.29-.13.31-.1c.19.27.9-.38.7.32a9.92,9.92,0,0,0-.05,2.55,8.3,8.3,0,0,1-.89,4.14,13,13,0,0,1-1.36,2,11.21,11.21,0,0,1-2.94,2.39,39.1,39.1,0,0,1-4.52,2.05c-.73.28-1.46.61-2.17.95a2.52,2.52,0,0,0-.7.51,3.33,3.33,0,0,0-1.08,1.58c-.05.22-.06.45-.1.66a7.47,7.47,0,0,1-.23,1c0,.09-.19.14-.29.21,0-.11-.15-.22-.14-.32a1.76,1.76,0,0,0-.92-1.9c-.31-.19-.57-.46-.87-.68a4.78,4.78,0,0,0-.74-.46,15.91,15.91,0,0,0-1.6-.67c-.56-.2-1.15-.3-1.71-.49s-.95-.38-1.42-.59c-.27-.12-.52-.26-.77-.4a1.4,1.4,0,0,1-.42-.3,7,7,0,0,1-.82-1.06,13.53,13.53,0,0,1-1-1.9,16.4,16.4,0,0,1-1-3.28,1.47,1.47,0,0,1,0-.36,10.78,10.78,0,0,0-.18-2.12,7.31,7.31,0,0,1,.5-3.46c.25-.59.48-1.2.73-1.8a.6.6,0,0,1,.12-.24.89.89,0,0,0,.19-1,1.23,1.23,0,0,1,.3-1.25,1.3,1.3,0,0,1,.43-.19,2.08,2.08,0,0,1,0,.43,3.39,3.39,0,0,1-.13.5"/></svg>